<?xml version="1.0" encoding="UTF-8"?>
<!DOCTYPE svg PUBLIC "-//W3C//DTD SVG 1.1//EN" "http://www.w3.org/Graphics/SVG/1.1/DTD/svg11.dtd">
<svg version="1.1" xmlns="http://www.w3.org/2000/svg" xmlns:xlink="http://www.w3.org/1999/xlink" x="0" y="0" width="35" height="35" viewBox="0, 0, 35, 35">
  <defs>
    <clipPath id="Clip_1">
      <path d="M0.215,-2.559 L34.826,-2.559 L34.826,36.19 L0.215,36.19 z M17.584,2.941 C17.584,2.941 12.578,6.823 4.815,7.273 C4.815,7.273 4.684,16.826 7.965,21.954 C15.021,32.981 17.584,30.436 17.584,30.436 C17.584,30.436 20.355,32.791 27.344,21.532 C30.793,15.975 30.184,7.216 30.184,7.216 C21.072,6.373 17.584,2.941 17.584,2.941 z"/>
    </clipPath>
    <filter id="Shadow_2">
      <feGaussianBlur in="SourceAlpha" stdDeviation="1.8"/>
      <feOffset dx="0" dy="0.9" result="offsetblur"/>
      <feFlood flood-color="#000000"/>
      <feComposite in2="offsetblur" operator="in"/>
    </filter>
    <linearGradient id="Gradient_1" gradientUnits="userSpaceOnUse" x1="4.815" y1="16.807" x2="30.185" y2="16.807">
      <stop offset="0" stop-color="#686767"/>
      <stop offset="1" stop-color="#FFFFFF"/>
    </linearGradient>
    <clipPath id="Clip_3">
      <path d="M17.584,2.941 C17.584,2.941 21.072,6.373 30.184,7.216 C30.184,7.216 30.269,15.682 27.344,21.532 C23.471,29.277 17.584,30.673 17.584,30.673 C17.584,30.673 11.486,28.282 7.965,21.954 C5.006,16.634 4.815,7.273 4.815,7.273 C12.578,6.823 17.584,2.941 17.584,2.941 z"/>
    </clipPath>
    <filter id="InnerShadow_4">
      <feGaussianBlur in="SourceAlpha" stdDeviation="1.35"/>
      <feOffset dx="-0.9" dy="0.9" result="offsetblur"/>
      <feFlood flood-color="#000000"/>
      <feComposite in2="offsetblur" operator="in"/>
    </filter>
    <clipPath id="Clip_5">
      <path d="M17.556,3.532 L17.584,30.673 C17.584,30.673 7.91,26.595 6.362,17.82 C4.815,9.045 4.815,7.273 4.815,7.273 C4.815,7.273 12.831,5.838 17.556,3.532 z"/>
    </clipPath>
    <filter id="InnerShadow_6">
      <feGaussianBlur in="SourceAlpha" stdDeviation="2.25"/>
      <feOffset dx="0" dy="1.8" result="offsetblur"/>
      <feFlood flood-color="#000000"/>
      <feComposite in2="offsetblur" operator="in"/>
    </filter>
    <clipPath id="Clip_7">
      <path d="M0.715,-1.12 L35.285,-1.12 L35.285,35.773 L0.715,35.773 z M18.031,4.574 C19.562,5.513 20.017,5.868 21.533,6.502 C24.192,7.481 26.93,8.29 29.771,8.508 C29.693,10.278 29.743,9.471 29.635,10.93 C29.45,13.137 29.11,15.332 28.581,17.372 C28.17,18.959 27.658,20.391 27.039,21.63 C26.151,23.405 25.112,24.919 23.954,26.195 C22.597,27.688 21.15,28.782 19.708,29.539 C19.21,29.801 18.749,30.001 18.341,30.149 L18.141,30.216 L17.951,30.129 C17.562,29.945 17.126,29.717 16.654,29.442 C15.301,28.654 13.946,27.66 12.683,26.444 C11.337,25.148 10.175,23.676 9.252,22.016 C8.473,20.616 7.841,18.812 7.349,16.702 C6.894,14.749 6.583,12.648 6.391,10.545 C6.28,9.181 6.327,9.837 6.249,8.579 C9.103,8.28 11.931,7.644 14.552,6.452 C15.679,5.956 16.679,5.424 17.542,4.89 L18.031,4.574 z M17.823,2.58 L17.533,2.73 C17.381,2.848 17.065,3.069 16.595,3.359 C15.801,3.851 14.874,4.344 13.827,4.805 C11.239,5.944 8.365,6.694 5.263,6.874 C4.78,6.902 4.406,7.307 4.416,7.791 C4.419,7.943 4.428,8.219 4.448,8.603 C4.48,9.239 4.529,9.947 4.599,10.709 C4.798,12.888 5.12,15.068 5.596,17.111 C6.123,19.37 6.808,21.325 7.679,22.892 C8.693,24.713 9.964,26.326 11.435,27.741 C12.808,29.062 14.277,30.141 15.748,30.998 C16.638,31.515 17.338,31.847 17.756,32.011 C17.926,32.078 18.113,32.091 18.292,32.048 C18.77,31.935 19.556,31.652 20.545,31.132 C22.167,30.281 23.783,29.06 25.286,27.405 C26.555,26.008 27.687,24.357 28.649,22.434 C29.329,21.074 29.883,19.526 30.324,17.824 C30.881,15.674 31.236,13.382 31.429,11.081 C31.55,9.649 31.588,8.487 31.584,7.731 C31.584,7.713 31.584,7.713 31.584,7.707 C31.58,7.246 31.227,6.863 30.767,6.82 C27.361,6.505 24.53,5.806 22.228,4.842 C21.119,4.377 20.21,3.883 19.489,3.394 C19.073,3.111 18.819,2.902 18.715,2.8 C18.273,2.5 18.554,2.623 17.823,2.58 z"/>
    </clipPath>
    <filter id="Shadow_8">
      <feGaussianBlur in="SourceAlpha" stdDeviation="1.35"/>
      <feOffset dx="0" dy="0" result="offsetblur"/>
      <feFlood flood-color="#000000"/>
      <feComposite in2="offsetblur" operator="in"/>
    </filter>
    <clipPath id="Clip_9">
      <path d="M17.823,2.58 C18.554,2.623 18.273,2.5 18.715,2.8 C18.819,2.902 19.073,3.111 19.489,3.394 C20.21,3.883 21.119,4.377 22.228,4.842 C24.53,5.806 27.361,6.505 30.767,6.82 C31.227,6.863 31.58,7.246 31.584,7.707 C31.584,7.713 31.584,7.713 31.584,7.731 C31.588,8.487 31.55,9.649 31.429,11.081 C31.236,13.382 30.881,15.674 30.324,17.824 C29.883,19.526 29.329,21.074 28.649,22.434 C27.687,24.357 26.555,26.008 25.286,27.405 C23.783,29.06 22.167,30.281 20.545,31.132 C19.556,31.652 18.77,31.935 18.292,32.048 C18.113,32.091 17.926,32.078 17.756,32.011 C17.338,31.847 16.638,31.515 15.748,30.998 C14.277,30.141 12.808,29.062 11.435,27.741 C9.964,26.326 8.693,24.713 7.679,22.892 C6.808,21.325 6.123,19.37 5.596,17.111 C5.12,15.068 4.798,12.888 4.599,10.709 C4.529,9.947 4.48,9.239 4.448,8.603 C4.428,8.219 4.419,7.943 4.416,7.791 C4.406,7.307 4.78,6.902 5.263,6.874 C8.365,6.694 11.239,5.944 13.827,4.805 C14.874,4.344 15.801,3.851 16.595,3.359 C17.065,3.069 17.381,2.848 17.533,2.73 L17.823,2.58 z M18.031,4.574 L17.542,4.89 C16.679,5.424 15.679,5.956 14.552,6.452 C11.931,7.644 9.103,8.28 6.249,8.579 C6.327,9.837 6.28,9.181 6.391,10.545 C6.583,12.648 6.894,14.749 7.349,16.702 C7.841,18.812 8.473,20.616 9.252,22.016 C10.175,23.676 11.337,25.148 12.683,26.444 C13.946,27.66 15.301,28.654 16.654,29.442 C17.126,29.717 17.562,29.945 17.951,30.129 L18.141,30.216 L18.341,30.149 C18.749,30.001 19.21,29.801 19.708,29.539 C21.15,28.782 22.597,27.688 23.954,26.195 C25.112,24.919 26.151,23.405 27.039,21.63 C27.658,20.391 28.17,18.959 28.581,17.372 C29.11,15.332 29.45,13.137 29.635,10.93 C29.743,9.471 29.693,10.278 29.771,8.508 C26.93,8.29 24.192,7.481 21.533,6.502 C20.017,5.868 19.562,5.513 18.031,4.574 z"/>
    </clipPath>
    <filter id="Shadow_10">
      <feGaussianBlur in="SourceAlpha" stdDeviation="0.45"/>
      <feOffset dx="0" dy="0" result="offsetblur"/>
      <feFlood flood-color="#5D5D5D"/>
      <feComposite in2="offsetblur" operator="in"/>
    </filter>
  </defs>
  <g id="Layer_1_Copy">
    <path d="M17.584,2.941 C17.584,2.941 21.072,6.373 30.184,7.216 C30.184,7.216 30.793,15.975 27.344,21.532 C20.355,32.791 17.584,30.436 17.584,30.436 C17.584,30.436 15.021,32.981 7.965,21.954 C4.684,16.826 4.815,7.273 4.815,7.273 C12.578,6.823 17.584,2.941 17.584,2.941 z" clip-path="url(#Clip_1)" filter="url(#Shadow_2)" fill="rgba(0,0,0,0.75)"/>
    <g>
      <path d="M17.584,2.941 C17.584,2.941 12.578,6.823 4.815,7.273 C4.815,7.273 5.006,16.634 7.965,21.954 C11.486,28.282 17.584,30.673 17.584,30.673 C17.584,30.673 23.471,29.277 27.344,21.532 C30.269,15.682 30.184,7.216 30.184,7.216 C21.072,6.373 17.584,2.941 17.584,2.941 z" fill="url(#Gradient_1)"/>
      <path d="M0.215,-1.659 L34.784,-1.659 L34.784,35.273 L0.215,35.273 z M17.584,2.941 C17.584,2.941 12.578,6.823 4.815,7.273 C4.815,7.273 5.006,16.634 7.965,21.954 C11.486,28.282 17.584,30.673 17.584,30.673 C17.584,30.673 23.471,29.277 27.344,21.532 C30.269,15.682 30.184,7.216 30.184,7.216 C21.072,6.373 17.584,2.941 17.584,2.941 z" clip-path="url(#Clip_3)" filter="url(#InnerShadow_4)" fill="rgba(0,0,0,0.75)"/>
    </g>
    <g>
      <path d="M17.556,3.532 L17.584,30.673 C17.584,30.673 7.91,26.595 6.362,17.82 C4.815,9.045 4.815,7.273 4.815,7.273 C4.815,7.273 12.831,5.838 17.556,3.532 z" fill="#575757"/>
      <path d="M-0.685,-3.768 L23.084,-3.768 L23.084,37.973 L-0.685,37.973 z M17.556,3.532 C12.831,5.838 4.815,7.273 4.815,7.273 C4.815,7.273 4.815,9.045 6.362,17.82 C7.91,26.595 17.584,30.673 17.584,30.673 L17.556,3.532 z" clip-path="url(#Clip_5)" filter="url(#InnerShadow_6)" fill="rgba(0,0,0,0.75)"/>
    </g>
    <g>
      <path d="M17.823,2.58 C18.554,2.623 18.273,2.5 18.715,2.8 C18.819,2.902 19.073,3.111 19.489,3.394 C20.21,3.883 21.119,4.377 22.228,4.842 C24.53,5.806 27.361,6.505 30.767,6.82 C31.227,6.863 31.58,7.246 31.584,7.707 C31.584,7.713 31.584,7.713 31.584,7.731 C31.588,8.487 31.55,9.649 31.429,11.081 C31.236,13.382 30.881,15.674 30.324,17.824 C29.883,19.526 29.329,21.074 28.649,22.434 C27.687,24.357 26.555,26.008 25.286,27.405 C23.783,29.06 22.167,30.281 20.545,31.132 C19.556,31.652 18.77,31.935 18.292,32.048 C18.113,32.091 17.926,32.078 17.756,32.011 C17.338,31.847 16.638,31.515 15.748,30.998 C14.277,30.141 12.808,29.062 11.435,27.741 C9.964,26.326 8.693,24.713 7.679,22.892 C6.808,21.325 6.123,19.37 5.596,17.111 C5.12,15.068 4.798,12.888 4.599,10.709 C4.529,9.947 4.48,9.239 4.448,8.603 C4.428,8.219 4.419,7.943 4.416,7.791 C4.406,7.307 4.78,6.902 5.263,6.874 C8.365,6.694 11.239,5.944 13.827,4.805 C14.874,4.344 15.801,3.851 16.595,3.359 C17.065,3.069 17.381,2.848 17.533,2.73 L17.823,2.58 z M18.031,4.574 L17.542,4.89 C16.679,5.424 15.679,5.956 14.552,6.452 C11.931,7.644 9.103,8.28 6.249,8.579 C6.327,9.837 6.28,9.181 6.391,10.545 C6.583,12.648 6.894,14.749 7.349,16.702 C7.841,18.812 8.473,20.616 9.252,22.016 C10.175,23.676 11.337,25.148 12.683,26.444 C13.946,27.66 15.301,28.654 16.654,29.442 C17.126,29.717 17.562,29.945 17.951,30.129 L18.141,30.216 L18.341,30.149 C18.749,30.001 19.21,29.801 19.708,29.539 C21.15,28.782 22.597,27.688 23.954,26.195 C25.112,24.919 26.151,23.405 27.039,21.63 C27.658,20.391 28.17,18.959 28.581,17.372 C29.11,15.332 29.45,13.137 29.635,10.93 C29.743,9.471 29.693,10.278 29.771,8.508 C26.93,8.29 24.192,7.481 21.533,6.502 C20.017,5.868 19.562,5.513 18.031,4.574 z" clip-path="url(#Clip_7)" filter="url(#Shadow_8)" fill="rgba(0,0,0,0.75)"/>
      <path d="M18.084,3.441 C18.084,3.441 13.078,7.323 5.315,7.773 C5.315,7.773 5.506,17.134 8.465,22.454 C11.986,28.782 18.084,31.173 18.084,31.173 C18.084,31.173 23.971,29.777 27.844,22.032 C30.769,16.182 30.684,7.716 30.684,7.716 C21.572,6.873 18.084,3.441 18.084,3.441 z" fill-opacity="0" stroke="#FFFFFF" stroke-width="1.8" stroke-linecap="round" stroke-linejoin="round"/>
      <g>
        <path d="M2.515,0.68 L33.485,0.68 L33.485,33.973 L2.515,33.973 z M18.031,4.574 C19.562,5.513 20.017,5.868 21.533,6.502 C24.192,7.481 26.93,8.29 29.771,8.508 C29.693,10.278 29.743,9.471 29.635,10.93 C29.45,13.137 29.11,15.332 28.581,17.372 C28.17,18.959 27.658,20.391 27.039,21.63 C26.151,23.405 25.112,24.919 23.954,26.195 C22.597,27.688 21.15,28.782 19.708,29.539 C19.21,29.801 18.749,30.001 18.341,30.149 L18.141,30.216 L17.951,30.129 C17.562,29.945 17.126,29.717 16.654,29.442 C15.301,28.654 13.946,27.66 12.683,26.444 C11.337,25.148 10.175,23.676 9.252,22.016 C8.473,20.616 7.841,18.812 7.349,16.702 C6.894,14.749 6.583,12.648 6.391,10.545 C6.28,9.181 6.327,9.837 6.249,8.579 C9.103,8.28 11.931,7.644 14.552,6.452 C15.679,5.956 16.679,5.424 17.542,4.89 L18.031,4.574 z M17.823,2.58 L17.533,2.73 C17.381,2.848 17.065,3.069 16.595,3.359 C15.801,3.851 14.874,4.344 13.827,4.805 C11.239,5.944 8.365,6.694 5.263,6.874 C4.78,6.902 4.406,7.307 4.416,7.791 C4.419,7.943 4.428,8.219 4.448,8.603 C4.48,9.239 4.529,9.947 4.599,10.709 C4.798,12.888 5.12,15.068 5.596,17.111 C6.123,19.37 6.808,21.325 7.679,22.892 C8.693,24.713 9.964,26.326 11.435,27.741 C12.808,29.062 14.277,30.141 15.748,30.998 C16.638,31.515 17.338,31.847 17.756,32.011 C17.926,32.078 18.113,32.091 18.292,32.048 C18.77,31.935 19.556,31.652 20.545,31.132 C22.167,30.281 23.783,29.06 25.286,27.405 C26.555,26.008 27.687,24.357 28.649,22.434 C29.329,21.074 29.883,19.526 30.324,17.824 C30.881,15.674 31.236,13.382 31.429,11.081 C31.55,9.649 31.588,8.487 31.584,7.731 C31.584,7.713 31.584,7.713 31.584,7.707 C31.58,7.246 31.227,6.863 30.767,6.82 C27.361,6.505 24.53,5.806 22.228,4.842 C21.119,4.377 20.21,3.883 19.489,3.394 C19.073,3.111 18.819,2.902 18.715,2.8 C18.273,2.5 18.554,2.623 17.823,2.58 z" fill="rgba(0,0,0,0.75)" clip-path="url(#Clip_9)" filter="url(#Shadow_10)"/>
        <path d="M2.515,0.905 L33.485,0.905 L33.26,0.68 L33.26,33.973 L33.485,33.748 L2.515,33.748 L2.74,33.973 L2.74,0.68 L2.515,0.905 z M2.515,0.455 C2.391,0.455 2.29,0.556 2.29,0.68 L2.29,33.973 C2.29,34.097 2.391,34.198 2.515,34.198 L33.485,34.198 C33.609,34.198 33.71,34.097 33.71,33.973 L33.71,0.68 C33.71,0.556 33.609,0.455 33.485,0.455 L2.515,0.455 z M17.913,4.766 C17.85,4.728 19.346,5.658 19.686,5.853 C19.867,5.958 20.041,6.053 20.221,6.146 C20.576,6.329 20.963,6.508 21.446,6.709 C24.611,7.875 27.187,8.536 29.754,8.733 L29.547,8.498 C29.526,8.975 29.495,9.733 29.49,9.824 C29.485,9.917 29.479,10.001 29.467,10.168 C29.447,10.437 29.43,10.662 29.411,10.913 C29.219,13.201 28.87,15.363 28.364,17.316 C27.949,18.913 27.44,20.324 26.837,21.529 C25.975,23.253 24.955,24.758 23.787,26.043 C22.502,27.458 21.09,28.559 19.604,29.339 C19.134,29.586 18.683,29.786 18.264,29.937 L18.069,30.003 L18.141,30.216 L18.235,30.012 L18.045,29.925 C17.646,29.736 17.215,29.508 16.767,29.247 C15.367,28.432 14.04,27.437 12.839,26.282 C11.478,24.972 10.342,23.512 9.449,21.907 C8.696,20.553 8.066,18.785 7.569,16.651 C7.133,14.784 6.815,12.713 6.615,10.525 C6.592,10.244 6.539,9.597 6.532,9.506 C6.524,9.397 6.472,8.525 6.474,8.565 L6.273,8.803 C9.379,8.477 12.16,7.787 14.645,6.657 C15.736,6.177 16.749,5.645 17.66,5.082 L18.153,4.763 L17.913,4.766 z M18.148,4.382 C18.074,4.337 17.981,4.338 17.908,4.385 L17.42,4.701 C16.53,5.251 15.535,5.773 14.462,6.246 C12.021,7.356 9.286,8.035 6.226,8.355 C6.106,8.368 6.018,8.472 6.025,8.593 C6.022,8.546 6.075,9.427 6.083,9.539 C6.09,9.633 6.144,10.283 6.167,10.563 C6.369,12.774 6.69,14.865 7.13,16.753 C7.636,18.924 8.28,20.732 9.055,22.126 C9.97,23.771 11.134,25.266 12.527,26.606 C13.754,27.787 15.11,28.803 16.541,29.636 C16.999,29.903 17.441,30.137 17.855,30.333 L18.047,30.421 L18.213,30.429 L18.413,30.362 C18.855,30.202 19.325,29.994 19.813,29.738 C21.346,28.933 22.8,27.799 24.12,26.346 C25.316,25.029 26.36,23.491 27.24,21.73 C27.857,20.495 28.378,19.055 28.799,17.429 C29.312,15.45 29.665,13.263 29.86,10.949 C29.878,10.696 29.895,10.471 29.916,10.202 C29.928,10.032 29.934,9.945 29.939,9.848 C29.944,9.754 29.975,8.992 29.996,8.518 C30.002,8.397 29.91,8.293 29.789,8.284 C27.269,8.091 24.731,7.44 21.611,6.291 C21.148,6.097 20.771,5.924 20.427,5.746 C20.254,5.657 20.086,5.565 19.91,5.464 C19.578,5.272 18.092,4.348 18.148,4.382 z M17.719,2.38 L17.429,2.53 C17.216,2.691 16.884,2.916 16.477,3.168 C15.654,3.677 14.733,4.16 13.736,4.599 C11.064,5.775 8.213,6.478 5.25,6.65 C4.647,6.685 4.178,7.191 4.191,7.796 C4.195,7.98 4.206,8.271 4.223,8.615 C4.257,9.283 4.308,9.994 4.375,10.729 C4.584,13.02 4.917,15.189 5.377,17.162 C5.922,19.499 6.62,21.451 7.482,23.001 C8.485,24.804 9.758,26.44 11.279,27.903 C12.611,29.186 14.081,30.287 15.635,31.192 C16.44,31.66 17.167,32.022 17.674,32.22 C17.887,32.304 18.121,32.32 18.344,32.267 C18.927,32.129 19.747,31.805 20.65,31.332 C22.368,30.429 23.99,29.167 25.453,27.556 C26.759,26.118 27.896,24.443 28.85,22.535 C29.526,21.184 30.088,19.629 30.542,17.88 C31.081,15.799 31.45,13.515 31.653,11.099 C31.763,9.798 31.814,8.61 31.809,7.729 C31.809,7.72 31.809,7.72 31.809,7.715 C31.809,7.711 31.809,7.711 31.809,7.709 C31.809,7.707 31.809,7.707 31.809,7.705 C31.803,7.128 31.362,6.649 30.788,6.596 C27.517,6.293 24.684,5.626 22.315,4.634 C21.265,4.194 20.359,3.712 19.616,3.208 C19.263,2.968 18.993,2.757 18.873,2.639 C18.78,2.572 18.638,2.472 18.616,2.458 C18.542,2.409 18.486,2.383 18.412,2.372 C18.37,2.365 18.047,2.368 17.836,2.355 L17.719,2.38 z M17.926,2.78 L17.809,2.805 C18.053,2.819 18.344,2.816 18.342,2.816 C18.342,2.816 18.343,2.817 18.368,2.833 C18.383,2.843 18.523,2.941 18.589,2.986 C18.7,3.1 18.989,3.327 19.363,3.58 C20.132,4.102 21.064,4.598 22.141,5.049 C24.554,6.06 27.432,6.737 30.746,7.044 C31.091,7.076 31.356,7.364 31.359,7.71 C31.359,7.712 31.359,7.712 31.359,7.713 C31.359,7.714 31.359,7.714 31.359,7.716 C31.359,7.721 31.359,7.721 31.359,7.731 C31.364,8.598 31.313,9.774 31.205,11.062 C31.004,13.453 30.639,15.712 30.106,17.767 C29.66,19.487 29.108,21.012 28.447,22.334 C27.512,24.206 26.398,25.846 25.119,27.254 C23.692,28.826 22.112,30.055 20.44,30.933 C19.57,31.391 18.784,31.701 18.24,31.829 C18.106,31.861 17.966,31.851 17.838,31.801 C17.355,31.612 16.647,31.26 15.862,30.803 C14.338,29.916 12.897,28.836 11.591,27.579 C10.102,26.146 8.857,24.545 7.876,22.782 C7.036,21.273 6.351,19.359 5.816,17.06 C5.361,15.108 5.03,12.96 4.823,10.688 C4.756,9.959 4.706,9.254 4.673,8.592 C4.655,8.253 4.644,7.966 4.641,7.786 C4.633,7.424 4.914,7.12 5.276,7.099 C8.294,6.924 11.197,6.208 13.918,5.01 C14.933,4.564 15.873,4.071 16.714,3.551 C17.133,3.291 17.477,3.058 17.671,2.908 L17.926,2.78 z" fill="rgba(0,0,0,0.75)" clip-path="url(#Clip_9)" filter="url(#Shadow_10)"/>
      </g>
    </g>
  </g>
</svg>
