<?xml version="1.0" encoding="UTF-8" standalone="no"?>
<svg
        xmlns:svg="http://www.w3.org/2000/svg"
        xmlns="http://www.w3.org/2000/svg"
        xmlns:xlink="http://www.w3.org/1999/xlink"
        version="1.1"
        width="139"
        height="278"
        viewbox="0 0 139 278">
    <defs>
        <g transform="translate(-326.97739,-595.39925)" id="icon">
            <path
                    d="m 328.83773,659.73167 c 15.57542,-8.99441 31.15083,-17.98883 46.72625,-26.98324 -5.19553,-8.99441 -10.39106,-17.98883 -15.58659,-26.98324 -10.37989,17.98883 -20.75977,35.97765 -31.13966,53.96648 z"
                    id="path3825-9-7"
                    style="stroke:none"/>
            <path
                    d="m 378.37963,631.13949 c 15.56983,-8.99441 31.13966,-17.98883 46.70949,-26.98324 -20.76536,0 -41.53072,0 -62.29609,0 5.19553,8.99441 10.39107,17.98883 15.5866,26.98324 z"
                    id="path3832-5-5"
                    style="stroke:none"/>
            <path
                    d="m 375.07795,715.13949 c 24.95531,-14.39665 49.91061,-28.7933 74.86592,-43.18994 -23.56983,-11.99442 -47.13966,-23.98883 -70.7095,-35.98324 -1.38547,26.39106 -2.77095,52.78212 -4.15642,79.17318 z"
                    id="path3842-4-6"
                    style="stroke:none"/>
            <path
                    d="m 326.97739,664.55848 c 14.97765,16.50838 29.95531,33.01676 44.93296,49.52514 1.36872,-25.93854 2.73743,-51.87709 4.10615,-77.81564 -16.34637,9.43017 -32.69274,18.86034 -49.03911,28.2905 z"
                    id="path3846-9-1"
                    style="stroke:none"/>
            <path
                    d="m 360.58074,723.5529 c 3.39107,-1.96648 6.78212,-3.93296 10.17319,-5.89944 -12.44693,-13.7095 -24.89386,-27.419 -37.34078,-41.12849 9.05586,15.67597 18.11173,31.35195 27.16759,47.02793 z"
                    id="path3848-1-1"
                    style="stroke:none"/>
            <path
                    d="m 366.01091,724.15625 c 13.60335,0 27.20671,0 40.81006,0 -11.05028,-1.48045 -22.10056,-2.96089 -33.15084,-4.44134 -2.55308,1.48045 -5.10614,2.96089 -7.65922,4.44134 z"
                    id="path3850-9-8"
                    style="stroke:none"/>
            <path
                    d="m 378.24555,717.10038 c 17.2905,2.30168 34.58101,4.60335 51.87151,6.90503 6.64246,-16.12849 13.28491,-32.25698 19.92737,-48.38547 -23.93296,13.82681 -47.86592,27.65363 -71.79888,41.48044 z"
                    id="path3852-3-2"
                    style="stroke:none"/>
            <path
                    d="m 454.67013,672.95513 c -4.24022,10.26816 -8.48045,20.53632 -12.72067,30.80447 6.77654,-11.72625 13.55307,-23.45251 20.32961,-35.17877 -2.53632,1.4581 -5.07263,2.9162 -7.60894,4.3743 z"
                    id="path3854-8-3"
                    style="stroke:none"/>
            <path
                    d="m 454.26789,669.43558 c 3.40783,-1.96089 6.81565,-3.92179 10.22347,-5.88268 -9.09497,-15.73184 -18.18995,-31.46369 -27.28492,-47.19553 5.68715,17.69273 11.3743,35.38547 17.06145,53.07821 z"
                    id="path3856-5-8"
                    style="stroke:none"/>
            <path
                    d="m 381.19527,633.25122 c 23.15084,11.7933 46.30167,23.5866 69.45251,35.37989 -6.81005,-21.22347 -13.62011,-42.44693 -20.43016,-63.67039 -16.34079,9.43017 -32.68157,18.86034 -49.02235,28.2905 z"
                    id="path3858-7-3"
                    style="stroke:none"/>
        </g>
    </defs>
    <use x="0" y="0" style="fill:#FFFFFF" xlink:href="#icon"/>
    <use x="0" y="139" style="fill:#485E70" xlink:href="#icon"/>
</svg>