<?xml version="1.0" encoding="UTF-8"?>
<!DOCTYPE svg PUBLIC "-//W3C//DTD SVG 1.1//EN" "http://www.w3.org/Graphics/SVG/1.1/DTD/svg11.dtd">
<svg version="1.1" xmlns="http://www.w3.org/2000/svg" xmlns:xlink="http://www.w3.org/1999/xlink" x="0" y="0" width="35" height="35" viewBox="0, 0, 35, 35">
  <defs>
    <clipPath id="Clip_1">
      <path d="M-1.485,-1.826 L38.441,-1.826 L38.441,38.1 L-1.485,38.1 z M18.478,3.674 C26.466,3.674 32.941,10.149 32.941,18.137 C32.941,26.125 26.466,32.6 18.478,32.6 C10.49,32.6 4.015,26.125 4.015,18.137 C4.015,10.149 10.49,3.674 18.478,3.674 z M18.478,1.874 C9.496,1.874 2.215,9.155 2.215,18.137 C2.215,27.119 9.496,34.4 18.478,34.4 C27.46,34.4 34.741,27.119 34.741,18.137 C34.741,9.155 27.46,1.874 18.478,1.874 z"/>
    </clipPath>
    <filter id="Shadow_2">
      <feGaussianBlur in="SourceAlpha" stdDeviation="1.35"/>
      <feOffset dx="0" dy="0" result="offsetblur"/>
      <feFlood flood-color="#000000"/>
      <feComposite in2="offsetblur" operator="in"/>
    </filter>
    <clipPath id="Clip_3">
      <path d="M18.478,1.874 C27.46,1.874 34.741,9.155 34.741,18.137 C34.741,27.119 27.46,34.4 18.478,34.4 C9.496,34.4 2.215,27.119 2.215,18.137 C2.215,9.155 9.496,1.874 18.478,1.874 z M18.478,3.674 C10.49,3.674 4.015,10.149 4.015,18.137 C4.015,26.125 10.49,32.6 18.478,32.6 C26.466,32.6 32.941,26.125 32.941,18.137 C32.941,10.149 26.466,3.674 18.478,3.674 z"/>
    </clipPath>
    <filter id="Shadow_4">
      <feGaussianBlur in="SourceAlpha" stdDeviation="0.45"/>
      <feOffset dx="0" dy="0" result="offsetblur"/>
      <feFlood flood-color="#5D5D5D"/>
      <feComposite in2="offsetblur" operator="in"/>
    </filter>
    <clipPath id="Clip_5">
      <path d="M-5.153,-6.28 L39.341,-6.28 L39.341,27.312 L-5.153,27.312 z M23.876,1.734 C21.262,2.079 18.712,2.672 16.324,3.839 C12.366,5.587 8.329,7.426 4.006,7.997 L4.443,6.086 C3.75,4.588 1.985,6.211 1.796,6.772 C1.607,7.334 1.702,9.019 1.985,11.141 C2.269,13.263 1.607,16.196 1.198,16.945 C0.788,17.694 0.851,18.568 0.851,18.568 C2.364,20.814 8.13,17.507 15.41,14.823 C22.689,12.14 28.866,15.01 28.866,15.01 C28.866,15.01 28.961,16.571 28.015,18.63 C28.173,20.19 32.396,18.568 32.396,17.444 C31.576,11.952 33.341,6.648 33.341,6.648 C31.783,2.912 27.625,1.567 23.876,1.734 z"/>
    </clipPath>
    <filter id="Shadow_6">
      <feGaussianBlur in="SourceAlpha" stdDeviation="2.5"/>
      <feOffset dx="0" dy="2" result="offsetblur"/>
      <feFlood flood-color="#000000"/>
      <feComposite in2="offsetblur" operator="in"/>
    </filter>
    <linearGradient id="Gradient_1" gradientUnits="userSpaceOnUse" x1="1.401" y1="12.784" x2="32.787" y2="8.225">
      <stop offset="0" stop-color="#956C38"/>
      <stop offset="0.381" stop-color="#FFEAA3"/>
      <stop offset="0.645" stop-color="#FAE49E"/>
      <stop offset="1" stop-color="#956C38"/>
    </linearGradient>
    <clipPath id="Clip_7">
      <path d="M3.399,-0.839 L30.741,-0.839 L30.741,20.28 L3.399,20.28 z M12.176,7.794 L12.476,7.826 C12.698,7.875 12.927,7.986 13.158,8.163 C13.681,8.571 14.052,9.323 14.246,10.441 C14.415,11.416 14.308,12.159 13.948,12.69 C13.644,13.132 13.28,13.381 12.839,13.457 C12.598,13.499 12.463,13.49 12.456,13.485 C12.454,13.484 12.409,13.388 12.374,13.184 L11.515,8.218 C11.48,8.017 11.49,7.918 11.485,7.924 C11.491,7.917 11.619,7.863 11.864,7.82 L12.176,7.794 z M25.601,2.188 C24.747,2.475 25.137,2.219 24.509,3.065 C23.633,2.566 22.911,2.664 22.027,2.741 C20.493,3.007 19.355,3.788 18.655,5.067 C18,6.626 17.786,7.604 18.074,9.347 C17.848,8.37 17.469,7.424 16.85,6.625 C15.638,5.006 13.949,4.366 11.865,4.727 C11.559,4.78 11.25,4.845 10.938,4.921 L9.801,5.199 C9.356,5.308 9.07,5.373 8.96,5.392 C8.642,5.447 8.305,5.485 7.949,5.505 C7.361,5.54 6.976,5.573 6.772,5.608 C6.31,5.688 5.937,5.911 5.684,6.27 C5.43,6.63 5.347,7.061 5.429,7.534 C5.499,7.937 5.679,8.275 5.966,8.524 C6.275,8.793 6.646,8.902 7.038,8.834 C7.176,8.81 7.334,8.759 7.521,8.681 L7.654,8.63 C7.77,8.914 7.709,8.738 7.806,9.168 L8.562,13.535 C8.616,13.983 8.614,13.792 8.601,14.107 L8.464,14.104 C8.257,14.095 8.09,14.1 7.953,14.123 C7.561,14.191 7.249,14.419 7.048,14.775 C6.861,15.108 6.805,15.485 6.875,15.889 C6.957,16.362 7.179,16.74 7.539,16.994 C7.898,17.247 8.324,17.331 8.787,17.251 C8.89,17.233 9.057,17.187 9.315,17.107 L9.92,16.939 C10.184,16.863 10.516,16.79 10.92,16.72 C11.243,16.664 11.526,16.625 11.767,16.604 L12.935,16.499 C13.205,16.475 13.525,16.431 13.895,16.367 C14.878,16.197 15.703,15.851 16.362,15.326 C17.11,14.721 17.643,13.893 17.961,12.852 C18.323,10.822 18.274,11.811 18.157,9.889 C18.521,11.365 19.06,12.855 20.326,13.805 C21.5,14.72 22.939,15.03 24.607,14.741 C25.964,14.506 27.034,13.959 27.797,13.095 C28.581,12.209 28.88,11.17 28.681,10.021 C28.575,9.404 28.32,8.918 27.91,8.587 C27.485,8.243 26.964,8.122 26.385,8.222 C25.921,8.303 25.543,8.514 25.277,8.854 C24.998,9.211 24.907,9.642 25.002,10.106 L25.116,10.668 C25.153,10.851 25.111,10.99 24.966,11.139 C24.788,11.324 24.525,11.451 24.162,11.514 C23.576,11.615 23.158,11.494 22.846,11.154 C22.49,10.767 22.205,10.036 22.02,8.965 C21.676,6.975 22.07,6.022 23.147,5.836 C23.495,5.775 23.777,5.81 24.007,5.931 C24.201,6.033 24.293,6.158 24.319,6.344 L24.388,6.834 C24.524,7.804 25.249,8.232 26.306,8.049 C26.796,7.965 27.192,7.755 27.475,7.419 C27.773,7.064 27.884,6.631 27.803,6.162 C27.774,5.999 27.716,5.78 27.626,5.499 C27.55,5.257 27.501,5.077 27.482,4.968 C27.454,4.803 27.428,4.505 27.407,4.084 C27.392,3.797 27.372,3.577 27.344,3.417 C27.271,2.996 27.067,2.655 26.739,2.424 C26.411,2.192 26.022,2.115 25.601,2.188 z"/>
    </clipPath>
    <filter id="Shadow_8">
      <feGaussianBlur in="SourceAlpha" stdDeviation="0.5"/>
      <feOffset dx="0" dy="1" result="offsetblur"/>
      <feFlood flood-color="#000000"/>
      <feComposite in2="offsetblur" operator="in"/>
    </filter>
  </defs>
  <g id="Layer_1">
    <g>
      <path d="M18.478,1.874 C27.46,1.874 34.741,9.155 34.741,18.137 C34.741,27.119 27.46,34.4 18.478,34.4 C9.496,34.4 2.215,27.119 2.215,18.137 C2.215,9.155 9.496,1.874 18.478,1.874 z M18.478,3.674 C10.49,3.674 4.015,10.149 4.015,18.137 C4.015,26.125 10.49,32.6 18.478,32.6 C26.466,32.6 32.941,26.125 32.941,18.137 C32.941,10.149 26.466,3.674 18.478,3.674 z" clip-path="url(#Clip_1)" filter="url(#Shadow_2)" fill="rgba(0,0,0,0.75)"/>
      <path d="M18.478,33.5 C9.993,33.5 3.115,26.622 3.115,18.137 C3.115,9.652 9.993,2.774 18.478,2.774 C26.963,2.774 33.841,9.652 33.841,18.137 C33.841,26.622 26.963,33.5 18.478,33.5 z" fill-opacity="0" stroke="#FFFFFF" stroke-width="1.8" stroke-linecap="round" stroke-linejoin="round"/>
      <g>
        <path d="M0.315,-0.026 L36.641,-0.026 L36.641,36.3 L0.315,36.3 z M18.478,3.674 C26.466,3.674 32.941,10.149 32.941,18.137 C32.941,26.125 26.466,32.6 18.478,32.6 C10.49,32.6 4.015,26.125 4.015,18.137 C4.015,10.149 10.49,3.674 18.478,3.674 z M18.478,1.874 C9.496,1.874 2.215,9.155 2.215,18.137 C2.215,27.119 9.496,34.4 18.478,34.4 C27.46,34.4 34.741,27.119 34.741,18.137 C34.741,9.155 27.46,1.874 18.478,1.874 z" fill="rgba(0,0,0,0.75)" clip-path="url(#Clip_3)" filter="url(#Shadow_4)"/>
        <path d="M0.315,0.199 L36.641,0.199 L36.416,-0.026 L36.416,36.3 L36.641,36.075 L0.315,36.075 L0.54,36.3 L0.54,-0.026 L0.315,0.199 z M0.315,-0.251 C0.19,-0.251 0.09,-0.151 0.09,-0.026 L0.09,36.3 C0.09,36.424 0.19,36.525 0.315,36.525 L36.641,36.525 C36.765,36.525 36.866,36.424 36.866,36.3 L36.866,-0.026 C36.866,-0.151 36.765,-0.251 36.641,-0.251 L0.315,-0.251 z M18.478,3.899 C26.341,3.899 32.716,10.273 32.716,18.137 C32.716,26 26.341,32.375 18.478,32.375 C10.614,32.375 4.24,26 4.24,18.137 C4.24,10.273 10.614,3.899 18.478,3.899 z M18.478,3.449 C10.366,3.449 3.79,10.025 3.79,18.137 C3.79,26.249 10.366,32.825 18.478,32.825 C26.59,32.825 33.166,26.249 33.166,18.137 C33.166,10.025 26.59,3.449 18.478,3.449 z M18.478,1.649 C9.372,1.649 1.99,9.031 1.99,18.137 C1.99,27.243 9.372,34.625 18.478,34.625 C27.584,34.625 34.966,27.243 34.966,18.137 C34.966,9.031 27.584,1.649 18.478,1.649 z M18.478,2.099 C27.335,2.099 34.516,9.279 34.516,18.137 C34.516,26.994 27.335,34.175 18.478,34.175 C9.62,34.175 2.44,26.994 2.44,18.137 C2.44,9.279 9.62,2.099 18.478,2.099 z" fill="rgba(0,0,0,0.75)" clip-path="url(#Clip_3)" filter="url(#Shadow_4)"/>
      </g>
    </g>
    <g>
      <g>
        <path d="M23.876,1.734 C27.625,1.567 31.783,2.912 33.341,6.648 C33.341,6.648 31.576,11.952 32.396,17.444 C32.396,18.568 28.173,20.19 28.015,18.63 C28.961,16.571 28.866,15.01 28.866,15.01 C28.866,15.01 22.689,12.14 15.41,14.823 C8.13,17.507 2.364,20.814 0.851,18.568 C0.851,18.568 0.788,17.694 1.198,16.945 C1.607,16.196 2.269,13.263 1.985,11.141 C1.702,9.019 1.607,7.334 1.796,6.772 C1.985,6.211 3.75,4.588 4.443,6.086 L4.006,7.997 C8.329,7.426 12.366,5.587 16.324,3.839 C18.712,2.672 21.262,2.079 23.876,1.734 z" clip-path="url(#Clip_5)" filter="url(#Shadow_6)" fill="rgba(0,0,0,0.75)"/>
        <path d="M2.364,6.772 C2.364,6.772 0.386,10.983 16.324,3.839 C29.969,-2.277 33.341,6.648 33.341,6.648 C33.341,6.648 31.576,11.952 32.396,17.444 C32.396,18.568 28.173,20.19 28.015,18.63 C28.961,16.571 28.866,15.01 28.866,15.01 C28.866,15.01 22.689,12.14 15.41,14.823 C8.13,17.507 2.364,20.814 0.851,18.568 C0.851,18.568 0.788,17.694 1.198,16.945 C1.607,16.196 2.269,13.263 1.985,11.141 C1.702,9.019 1.607,7.334 1.796,6.772 C1.985,6.211 3.75,4.588 4.443,6.086 L3.183,11.588 L1.972,6.876 L2.364,6.772 z" fill="url(#Gradient_1)"/>
      </g>
      <g>
        <path d="M2.864,7.272 C2.864,7.272 0.886,11.483 16.824,4.339 C30.469,-1.777 33.841,7.148 33.841,7.148 C33.841,7.148 32.076,12.452 32.896,17.944 C32.896,19.068 28.673,20.69 28.515,19.13 C29.461,17.071 29.366,15.51 29.366,15.51 C29.366,15.51 23.189,12.64 15.91,15.323 C8.63,18.007 2.864,21.314 1.351,19.068 C1.351,19.068 1.288,18.194 1.698,17.445 C2.107,16.696 2.769,13.763 2.485,11.641 C2.202,9.519 2.107,7.834 2.296,7.272 C2.485,6.711 4.25,5.088 4.943,6.586 L4.534,8.396" fill-opacity="0" stroke="#563F23" stroke-width="0.5" stroke-linecap="round" stroke-linejoin="round"/>
        <path d="M29.366,15.51 C29.366,15.51 31.075,16.049 32.217,17.62 C32.217,17.62 31.851,18.259 30.273,18.484" fill-opacity="0" stroke="#563F23" stroke-width="0.5" stroke-linecap="round" stroke-linejoin="round"/>
        <path d="M4.515,6.96 C4.515,6.96 3.276,6.655 2.864,7.272" fill-opacity="0" stroke="#563F23" stroke-width="0.5" stroke-linecap="round"/>
      </g>
    </g>
    <g>
      <path d="M25.601,2.188 C26.022,2.115 26.411,2.192 26.739,2.424 C27.067,2.655 27.271,2.996 27.344,3.417 C27.372,3.577 27.392,3.797 27.407,4.084 C27.428,4.505 27.454,4.803 27.482,4.968 C27.501,5.077 27.55,5.257 27.626,5.499 C27.716,5.78 27.774,5.999 27.803,6.162 C27.884,6.631 27.773,7.064 27.475,7.419 C27.192,7.755 26.796,7.965 26.306,8.049 C25.249,8.232 24.524,7.804 24.388,6.834 L24.319,6.344 C24.293,6.158 24.201,6.033 24.007,5.931 C23.777,5.81 23.495,5.775 23.147,5.836 C22.07,6.022 21.676,6.975 22.02,8.965 C22.205,10.036 22.49,10.767 22.846,11.154 C23.158,11.494 23.576,11.615 24.162,11.514 C24.525,11.451 24.788,11.324 24.966,11.139 C25.111,10.99 25.153,10.851 25.116,10.668 L25.002,10.106 C24.907,9.642 24.998,9.211 25.277,8.854 C25.543,8.514 25.921,8.303 26.385,8.222 C26.964,8.122 27.485,8.243 27.91,8.587 C28.32,8.918 28.575,9.404 28.681,10.021 C28.88,11.17 28.581,12.209 27.797,13.095 C27.034,13.959 25.964,14.506 24.607,14.741 C22.939,15.03 21.5,14.72 20.326,13.805 C19.06,12.855 18.521,11.365 18.157,9.889 C18.274,11.811 18.323,10.822 17.961,12.852 C17.643,13.893 17.11,14.721 16.362,15.326 C15.703,15.851 14.878,16.197 13.895,16.367 C13.525,16.431 13.205,16.475 12.935,16.499 L11.767,16.604 C11.526,16.625 11.243,16.664 10.92,16.72 C10.516,16.79 10.184,16.863 9.92,16.939 L9.315,17.107 C9.057,17.187 8.89,17.233 8.787,17.251 C8.324,17.331 7.898,17.247 7.539,16.994 C7.179,16.74 6.957,16.362 6.875,15.889 C6.805,15.485 6.861,15.108 7.048,14.775 C7.249,14.419 7.561,14.191 7.953,14.123 C8.09,14.1 8.257,14.095 8.464,14.104 L8.601,14.107 C8.614,13.792 8.616,13.983 8.562,13.535 L7.806,9.168 C7.709,8.738 7.77,8.914 7.654,8.63 L7.521,8.681 C7.334,8.759 7.176,8.81 7.038,8.834 C6.646,8.902 6.275,8.793 5.966,8.524 C5.679,8.275 5.499,7.937 5.429,7.534 C5.347,7.061 5.43,6.63 5.684,6.27 C5.937,5.911 6.31,5.688 6.772,5.608 C6.976,5.573 7.361,5.54 7.949,5.505 C8.305,5.485 8.642,5.447 8.96,5.392 C9.07,5.373 9.356,5.308 9.801,5.199 L10.938,4.921 C11.25,4.845 11.559,4.78 11.865,4.727 C13.949,4.366 15.638,5.006 16.85,6.625 C17.469,7.424 17.848,8.37 18.074,9.347 C17.786,7.604 18,6.626 18.655,5.067 C19.355,3.788 20.493,3.007 22.027,2.741 C22.911,2.664 23.633,2.566 24.509,3.065 C25.137,2.219 24.747,2.475 25.601,2.188 z M12.176,7.794 L11.864,7.82 C11.619,7.863 11.491,7.917 11.485,7.924 C11.49,7.918 11.48,8.017 11.515,8.218 L12.374,13.184 C12.409,13.388 12.454,13.484 12.456,13.485 C12.463,13.49 12.598,13.499 12.839,13.457 C13.28,13.381 13.644,13.132 13.948,12.69 C14.308,12.159 14.415,11.416 14.246,10.441 C14.052,9.323 13.681,8.571 13.158,8.163 C12.927,7.986 12.698,7.875 12.476,7.826 L12.176,7.794 z" clip-path="url(#Clip_7)" filter="url(#Shadow_8)" fill="rgba(0,0,0,0.769)"/>
      <text transform="matrix(0.985, -0.171, 0.171, 0.985, 17.319, 10.112)">
        <tspan x="-11.064" y="5" font-family="AmericanTypewriter-Bold" font-size="16" fill="#FFFFFF">DC</tspan>
      </text>
      <path d="M8.815,14.596 Q9.24,14.522 9.055,13.45 L8.299,9.083 Q8.116,8.027 7.691,8.1 Q7.565,8.122 7.33,8.219 Q7.095,8.317 6.953,8.341 Q6.59,8.404 6.294,8.147 Q5.998,7.89 5.922,7.448 Q5.832,6.928 6.092,6.558 Q6.353,6.188 6.858,6.101 Q7.126,6.055 7.978,6.005 Q8.54,5.972 9.045,5.885 Q9.234,5.852 9.919,5.685 L11.057,5.407 Q11.508,5.296 11.95,5.22 Q14.803,4.726 16.451,6.925 Q17.379,8.161 17.649,9.722 Q17.919,11.283 17.483,12.706 Q17.048,14.129 16.05,14.935 Q15.166,15.64 13.81,15.875 Q13.274,15.967 12.89,16.001 L11.723,16.106 Q11.339,16.14 10.834,16.227 Q10.204,16.336 9.786,16.457 L9.167,16.629 Q8.812,16.739 8.702,16.759 Q8.197,16.846 7.827,16.585 Q7.458,16.324 7.368,15.804 Q7.291,15.363 7.484,15.021 Q7.676,14.679 8.039,14.616 Q8.181,14.592 8.442,14.603 Q8.704,14.615 8.815,14.596 z M11.779,7.328 Q11.243,7.421 11.09,7.617 Q10.937,7.814 11.022,8.303 L11.881,13.269 Q11.966,13.758 12.177,13.9 Q12.389,14.042 12.925,13.949 Q13.792,13.799 14.363,12.97 Q15.022,11.995 14.738,10.356 Q14.419,8.511 13.462,7.767 Q13.032,7.436 12.576,7.336 Q12.189,7.257 11.779,7.328 z M22.112,3.234 Q23.626,2.972 24.936,3.882 Q24.912,3.837 24.893,3.727 Q24.74,2.844 25.686,2.68 Q26.128,2.604 26.451,2.832 Q26.775,3.06 26.851,3.502 Q26.887,3.707 26.908,4.109 Q26.941,4.769 26.99,5.053 Q27.025,5.258 27.15,5.65 Q27.275,6.043 27.31,6.248 Q27.395,6.737 27.092,7.097 Q26.789,7.458 26.221,7.557 Q25.023,7.764 24.883,6.765 L24.814,6.274 Q24.74,5.751 24.24,5.488 Q23.74,5.226 23.062,5.343 Q20.949,5.709 21.527,9.051 Q21.827,10.785 22.478,11.493 Q23.128,12.2 24.247,12.006 Q24.941,11.886 25.326,11.487 Q25.712,11.087 25.606,10.57 L25.492,10.005 Q25.392,9.519 25.671,9.162 Q25.95,8.805 26.471,8.715 Q27.133,8.601 27.595,8.975 Q28.058,9.35 28.189,10.106 Q28.448,11.604 27.423,12.764 Q26.398,13.924 24.521,14.248 Q22.22,14.647 20.634,13.411 Q19.048,12.175 18.609,9.637 Q18.156,7.02 19.093,5.307 Q20.031,3.594 22.112,3.234 z" fill-opacity="0" stroke="#000000" stroke-width="1"/>
    </g>
  </g>
</svg>
