<?xml version="1.0" encoding="UTF-8"?>
<!DOCTYPE svg PUBLIC "-//W3C//DTD SVG 1.1//EN" "http://www.w3.org/Graphics/SVG/1.1/DTD/svg11.dtd">
<svg version="1.1" xmlns="http://www.w3.org/2000/svg" xmlns:xlink="http://www.w3.org/1999/xlink" x="0" y="0" width="35" height="35" viewBox="0, 0, 35, 35">
  <defs>
    <clipPath id="Clip_1">
      <path d="M5.388,-0.344 L29.611,-0.344 L29.611,34.094 L5.388,34.094 z M17.659,2.669 C17.659,2.669 8.083,15.544 8.189,21.609 C8.296,27.674 11.701,31.18 17.553,31.079 C23.724,30.973 26.704,27.248 26.81,21.715 C26.911,16.498 21.171,6.819 17.659,2.669 z"/>
    </clipPath>
    <filter id="Shadow_2">
      <feGaussianBlur in="SourceAlpha" stdDeviation="0.9"/>
      <feOffset dx="0" dy="0.213" result="offsetblur"/>
      <feFlood flood-color="#000000"/>
      <feComposite in2="offsetblur" operator="in"/>
    </filter>
    <radialGradient id="Gradient_1" gradientUnits="userSpaceOnUse" cx="20.329" cy="22.844" r="13.699">
      <stop offset="0" stop-color="#FE914F"/>
      <stop offset="0.455" stop-color="#ED2713"/>
      <stop offset="1" stop-color="#9E0000"/>
    </radialGradient>
    <clipPath id="Clip_3">
      <path d="M17.659,2.669 C21.171,6.819 26.911,16.498 26.81,21.715 C26.704,27.248 23.724,30.973 17.553,31.079 C11.701,31.18 8.296,27.674 8.189,21.609 C8.083,15.544 17.659,2.669 17.659,2.669 z"/>
    </clipPath>
    <filter id="InnerShadow_4">
      <feGaussianBlur in="SourceAlpha" stdDeviation="2.66"/>
      <feOffset dx="2.234" dy="-1.17" result="offsetblur"/>
      <feFlood flood-color="#000000"/>
      <feComposite in2="offsetblur" operator="in"/>
    </filter>
    <clipPath id="Clip_5">
      <path d="M17.659,2.669 C21.171,6.819 26.911,16.498 26.81,21.715 C26.704,27.248 23.724,30.973 17.553,31.079 C11.701,31.18 8.296,27.674 8.189,21.609 C8.083,15.544 17.659,2.669 17.659,2.669 z"/>
    </clipPath>
    <filter id="InnerShadow_6">
      <feGaussianBlur in="SourceAlpha" stdDeviation="1.702"/>
      <feOffset dx="-2.767" dy="1.49" result="offsetblur"/>
      <feFlood flood-color="#FFFFFF"/>
      <feComposite in2="offsetblur" operator="in"/>
    </filter>
    <clipPath id="Clip_7">
      <path d="M17.659,2.669 C21.171,6.819 26.911,16.498 26.81,21.715 C26.704,27.248 23.724,30.973 17.553,31.079 C11.701,31.18 8.296,27.674 8.189,21.609 C8.083,15.544 17.659,2.669 17.659,2.669 z"/>
    </clipPath>
    <filter id="InnerShadow_8">
      <feGaussianBlur in="SourceAlpha" stdDeviation="0.532"/>
      <feOffset dx="-1.915" dy="-0.213" result="offsetblur"/>
      <feFlood flood-color="#000000"/>
      <feComposite in2="offsetblur" operator="in"/>
    </filter>
    <clipPath id="Clip_9">
      <path d="M4.088,-1.368 L31.911,-1.368 L31.911,36.181 L4.088,36.181 z M18.189,4.667 C22.078,9.646 25.783,15.786 26.41,22.198 C26.308,27.535 23.455,30.586 18.037,30.679 C12.715,30.771 9.688,27.695 9.589,22.093 C9.559,20.364 10.443,17.769 12.06,14.593 C12.682,13.371 13.4,12.088 14.196,10.762 C15.221,9.053 16.321,7.361 17.421,5.764 C18.046,4.866 17.788,5.23 18.189,4.667 z M18.517,2.342 C17.614,2.371 17.946,2.201 17.437,2.632 C17.36,2.735 17.219,2.928 17.022,3.202 C16.695,3.657 16.33,4.174 15.938,4.743 C14.818,6.369 13.699,8.092 12.652,9.836 C11.836,11.195 11.098,12.515 10.456,13.776 C8.714,17.197 7.753,20.02 7.79,22.125 C7.905,28.7 11.731,32.588 18.069,32.479 C24.483,32.368 28.089,28.511 28.21,22.233 C28.303,17.413 23.419,7.992 18.846,2.588 L18.517,2.342 z"/>
    </clipPath>
    <filter id="Shadow_10">
      <feGaussianBlur in="SourceAlpha" stdDeviation="1.35"/>
      <feOffset dx="0" dy="0" result="offsetblur"/>
      <feFlood flood-color="#000000"/>
      <feComposite in2="offsetblur" operator="in"/>
    </filter>
    <clipPath id="Clip_11">
      <path d="M18.517,2.342 L18.846,2.588 C23.419,7.992 28.303,17.413 28.21,22.233 C28.089,28.511 24.483,32.368 18.069,32.479 C11.731,32.588 7.905,28.7 7.79,22.125 C7.753,20.02 8.714,17.197 10.456,13.776 C11.098,12.515 11.836,11.195 12.652,9.836 C13.699,8.092 14.818,6.369 15.938,4.743 C16.33,4.174 16.695,3.657 17.022,3.202 C17.219,2.928 17.36,2.735 17.437,2.632 C17.946,2.201 17.614,2.371 18.517,2.342 z M18.189,4.667 C17.788,5.23 18.046,4.866 17.421,5.764 C16.321,7.361 15.221,9.053 14.196,10.762 C13.4,12.088 12.682,13.371 12.06,14.593 C10.443,17.769 9.559,20.364 9.589,22.093 C9.688,27.695 12.715,30.771 18.037,30.679 C23.455,30.586 26.308,27.535 26.41,22.198 C25.783,15.786 22.078,9.646 18.189,4.667 z"/>
    </clipPath>
    <filter id="Shadow_12">
      <feGaussianBlur in="SourceAlpha" stdDeviation="0.45"/>
      <feOffset dx="0" dy="0" result="offsetblur"/>
      <feFlood flood-color="#5D5D5D"/>
      <feComposite in2="offsetblur" operator="in"/>
    </filter>
  </defs>
  <g id="Layer_1">
    <g>
      <g>
        <path d="M17.659,2.669 C21.171,6.819 26.911,16.498 26.81,21.715 C26.704,27.248 23.724,30.973 17.553,31.079 C11.701,31.18 8.296,27.674 8.189,21.609 C8.083,15.544 17.659,2.669 17.659,2.669 z" clip-path="url(#Clip_1)" filter="url(#Shadow_2)" fill="rgba(0,0,0,0.75)"/>
        <path d="M17.659,2.669 C17.659,2.669 8.083,15.544 8.189,21.609 C8.296,27.674 11.701,31.18 17.553,31.079 C23.724,30.973 26.704,27.248 26.81,21.715 C26.911,16.498 21.171,6.819 17.659,2.669 z" fill="url(#Gradient_1)"/>
        <path d="M-0.366,-4.822 L35.366,-4.822 L35.366,38.572 L-0.366,38.572 z M17.659,2.669 C17.659,2.669 8.083,15.544 8.189,21.609 C8.296,27.674 11.701,31.18 17.553,31.079 C23.724,30.973 26.704,27.248 26.81,21.715 C26.911,16.498 21.171,6.819 17.659,2.669 z" clip-path="url(#Clip_3)" filter="url(#InnerShadow_4)" fill="rgba(0,0,0,1)"/>
        <path d="M1.017,-3.226 L33.983,-3.226 L33.983,36.976 L1.017,36.976 z M17.659,2.669 C17.659,2.669 8.083,15.544 8.189,21.609 C8.296,27.674 11.701,31.18 17.553,31.079 C23.724,30.973 26.704,27.248 26.81,21.715 C26.911,16.498 21.171,6.819 17.659,2.669 z" clip-path="url(#Clip_5)" filter="url(#InnerShadow_6)" fill="rgba(0,0,0,0.646)"/>
        <path d="M4.209,0.392 L30.791,0.392 L30.791,33.358 L4.209,33.358 z M17.659,2.669 C17.659,2.669 8.083,15.544 8.189,21.609 C8.296,27.674 11.701,31.18 17.553,31.079 C23.724,30.973 26.704,27.248 26.81,21.715 C26.911,16.498 21.171,6.819 17.659,2.669 z" clip-path="url(#Clip_7)" filter="url(#InnerShadow_8)" fill="rgba(0,0,0,0.75)"/>
      </g>
      <g>
        <path d="M18.517,2.342 L18.846,2.588 C23.419,7.992 28.303,17.413 28.21,22.233 C28.089,28.511 24.483,32.368 18.069,32.479 C11.731,32.588 7.905,28.7 7.79,22.125 C7.753,20.02 8.714,17.197 10.456,13.776 C11.098,12.515 11.836,11.195 12.652,9.836 C13.699,8.092 14.818,6.369 15.938,4.743 C16.33,4.174 16.695,3.657 17.022,3.202 C17.219,2.928 17.36,2.735 17.437,2.632 C17.946,2.201 17.614,2.371 18.517,2.342 z M18.189,4.667 C17.788,5.23 18.046,4.866 17.421,5.764 C16.321,7.361 15.221,9.053 14.196,10.762 C13.4,12.088 12.682,13.371 12.06,14.593 C10.443,17.769 9.559,20.364 9.589,22.093 C9.688,27.695 12.715,30.771 18.037,30.679 C23.455,30.586 26.308,27.535 26.41,22.198 C25.783,15.786 22.078,9.646 18.189,4.667 z" clip-path="url(#Clip_9)" filter="url(#Shadow_10)" fill="rgba(0,0,0,0.75)"/>
        <path d="M18.159,3.169 C18.159,3.169 8.583,16.044 8.689,22.109 C8.796,28.174 12.201,31.68 18.053,31.579 C24.224,31.473 27.204,27.748 27.31,22.215 C27.411,16.998 21.671,7.319 18.159,3.169 z" fill-opacity="0" stroke="#FFFFFF" stroke-width="1.8" stroke-linecap="round" stroke-linejoin="round"/>
        <g>
          <path d="M5.888,0.432 L30.111,0.432 L30.111,34.381 L5.888,34.381 z M18.189,4.667 C22.078,9.646 25.783,15.786 26.41,22.198 C26.308,27.535 23.455,30.586 18.037,30.679 C12.715,30.771 9.688,27.695 9.589,22.093 C9.559,20.364 10.443,17.769 12.06,14.593 C12.682,13.371 13.4,12.088 14.196,10.762 C15.221,9.053 16.321,7.361 17.421,5.764 C18.046,4.866 17.788,5.23 18.189,4.667 z M18.517,2.342 C17.614,2.371 17.946,2.201 17.437,2.632 C17.36,2.735 17.219,2.928 17.022,3.202 C16.695,3.657 16.33,4.174 15.938,4.743 C14.818,6.369 13.699,8.092 12.652,9.836 C11.836,11.195 11.098,12.515 10.456,13.776 C8.714,17.197 7.753,20.02 7.79,22.125 C7.905,28.7 11.731,32.588 18.069,32.479 C24.483,32.368 28.089,28.511 28.21,22.233 C28.303,17.413 23.419,7.992 18.846,2.588 L18.517,2.342 z" fill="rgba(0,0,0,0.75)" clip-path="url(#Clip_11)" filter="url(#Shadow_12)"/>
          <path d="M5.888,0.657 L30.111,0.657 L29.886,0.432 L29.886,34.381 L30.111,34.156 L5.888,34.156 L6.113,34.381 L6.113,0.432 L5.888,0.657 z M5.888,0.207 C5.764,0.207 5.663,0.308 5.663,0.432 L5.663,34.381 C5.663,34.505 5.764,34.606 5.888,34.606 L30.111,34.606 C30.236,34.606 30.336,34.505 30.336,34.381 L30.336,0.432 C30.336,0.308 30.236,0.207 30.111,0.207 L5.888,0.207 z M18.011,4.806 C22.737,10.855 25.637,16.611 26.186,22.22 C26.084,27.472 23.269,30.364 18.034,30.454 C12.838,30.544 9.91,27.569 9.814,22.089 C9.785,20.437 10.628,17.901 12.261,14.695 C12.87,13.498 13.582,12.222 14.389,10.877 C15.371,9.239 16.458,7.559 17.606,5.892 C17.819,5.586 18.086,5.201 18.074,5.219 C18.125,5.145 18.041,5.263 18.372,4.798 L18.011,4.806 z M18.366,4.529 C18.273,4.41 18.093,4.414 18.005,4.537 C17.672,5.005 17.757,4.885 17.704,4.961 C17.716,4.944 17.45,5.329 17.236,5.636 C16.082,7.311 14.991,8.999 14.003,10.646 C13.191,11.999 12.474,13.284 11.86,14.491 C10.196,17.757 9.334,20.353 9.364,22.097 C9.465,27.82 12.592,30.998 18.041,30.904 C23.522,30.81 26.529,27.72 26.635,22.202 C26.075,16.466 23.139,10.639 18.366,4.529 z M18.51,2.118 C18.252,2.126 17.848,2.105 17.793,2.114 C17.702,2.129 17.635,2.165 17.55,2.236 C17.527,2.255 17.364,2.399 17.292,2.46 C17.163,2.623 17.015,2.827 16.839,3.071 C16.496,3.549 16.13,4.068 15.753,4.616 C14.579,6.321 13.467,8.04 12.459,9.72 C11.626,11.109 10.889,12.429 10.256,13.674 C8.437,17.246 7.528,20.044 7.565,22.129 C7.682,28.839 11.62,32.815 18.072,32.704 C24.531,32.592 28.31,28.716 28.435,22.237 C28.524,17.612 23.939,8.257 19.018,2.442 L18.651,2.162 L18.51,2.118 z M18.524,2.567 L18.383,2.523 L18.712,2.768 C23.531,8.472 28.071,17.735 27.985,22.228 C27.865,28.467 24.279,32.147 18.065,32.254 C11.866,32.361 8.128,28.587 8.014,22.121 C7.979,20.127 8.868,17.39 10.657,13.878 C11.285,12.643 12.017,11.332 12.845,9.951 C13.848,8.28 14.954,6.568 16.124,4.871 C16.499,4.326 16.863,3.809 17.204,3.334 C17.379,3.092 17.526,2.89 17.618,2.766 C17.661,2.737 17.821,2.596 17.837,2.582 C17.866,2.559 17.866,2.558 17.865,2.558 C17.864,2.559 18.225,2.577 18.524,2.567 z" fill="rgba(0,0,0,0.75)" clip-path="url(#Clip_11)" filter="url(#Shadow_12)"/>
        </g>
      </g>
    </g>
  </g>
</svg>
